<mxfile host="drawio-plugin" modified="2023-02-18T06:55:49.100Z" agent="5.0 (Windows NT 6.2; Win64; x64) AppleWebKit/537.36 (KHTML, like Gecko) Chrome/97.0.4692.45 Safari/537.36" etag="XZmQrtORGJlh43IXF_zD" version="20.5.3" type="embed"><diagram id="C5RBs43oDa-KdzZeNtuy" name="Page-1"><mxGraphModel dx="1062" dy="528" grid="1" gridSize="10" guides="1" tooltips="1" connect="1" arrows="1" fold="1" page="1" pageScale="1" pageWidth="827" pageHeight="1169" math="0" shadow="0"><root><mxCell id="WIyWlLk6GJQsqaUBKTNV-0"/><mxCell id="WIyWlLk6GJQsqaUBKTNV-1" parent="WIyWlLk6GJQsqaUBKTNV-0"/><mxCell id="_gz8mSSlESVxTtfRlgLz-0" value="" style="rounded=0;whiteSpace=wrap;html=1;shadow=0;" parent="WIyWlLk6GJQsqaUBKTNV-1" vertex="1"><mxGeometry x="209" y="10" width="410" height="650" as="geometry"/></mxCell><mxCell id="_gz8mSSlESVxTtfRlgLz-1" value="&lt;font style=&quot;font-size: 18px;&quot;&gt;BookMyShow&lt;/font&gt;" style="text;html=1;strokeColor=none;fillColor=none;align=center;verticalAlign=middle;whiteSpace=wrap;rounded=0;" parent="WIyWlLk6GJQsqaUBKTNV-1" vertex="1"><mxGeometry x="385" y="50" width="60" height="30" as="geometry"/></mxCell><mxCell id="_gz8mSSlESVxTtfRlgLz-3" value="User" style="shape=umlActor;verticalLabelPosition=bottom;verticalAlign=top;html=1;outlineConnect=0;fontSize=18;" parent="WIyWlLk6GJQsqaUBKTNV-1" vertex="1"><mxGeometry x="60" y="280" width="30" height="60" as="geometry"/></mxCell><mxCell id="_gz8mSSlESVxTtfRlgLz-4" value="Theater" style="shape=umlActor;verticalLabelPosition=bottom;verticalAlign=top;html=1;outlineConnect=0;fontSize=18;" parent="WIyWlLk6GJQsqaUBKTNV-1" vertex="1"><mxGeometry x="750" y="220" width="30" height="60" as="geometry"/></mxCell><mxCell id="_gz8mSSlESVxTtfRlgLz-7" value="" style="ellipse;whiteSpace=wrap;html=1;fontSize=18;" parent="WIyWlLk6GJQsqaUBKTNV-1" vertex="1"><mxGeometry x="240" y="110" width="100" height="50" as="geometry"/></mxCell><mxCell id="_gz8mSSlESVxTtfRlgLz-8" value="&lt;font style=&quot;&quot;&gt;&lt;font style=&quot;font-size: 12px;&quot;&gt;Search&lt;/font&gt;&lt;span style=&quot;font-size: 11px;&quot;&gt; Movie&lt;/span&gt;&lt;/font&gt;" style="text;html=1;strokeColor=none;fillColor=none;align=center;verticalAlign=middle;whiteSpace=wrap;rounded=0;fontSize=18;" parent="WIyWlLk6GJQsqaUBKTNV-1" vertex="1"><mxGeometry x="260" y="120" width="60" height="30" as="geometry"/></mxCell><mxCell id="_gz8mSSlESVxTtfRlgLz-9" value="" style="ellipse;whiteSpace=wrap;html=1;fontSize=12;" parent="WIyWlLk6GJQsqaUBKTNV-1" vertex="1"><mxGeometry x="240" y="260" width="110" height="50" as="geometry"/></mxCell><mxCell id="_gz8mSSlESVxTtfRlgLz-10" value="Book Ticket" style="text;html=1;strokeColor=none;fillColor=none;align=center;verticalAlign=middle;whiteSpace=wrap;rounded=0;fontSize=12;" parent="WIyWlLk6GJQsqaUBKTNV-1" vertex="1"><mxGeometry x="265" y="270" width="60" height="30" as="geometry"/></mxCell><mxCell id="_gz8mSSlESVxTtfRlgLz-13" value="" style="ellipse;whiteSpace=wrap;html=1;fontSize=12;" parent="WIyWlLk6GJQsqaUBKTNV-1" vertex="1"><mxGeometry x="240" y="350" width="120" height="50" as="geometry"/></mxCell><mxCell id="_gz8mSSlESVxTtfRlgLz-14" value="Register" style="text;html=1;strokeColor=none;fillColor=none;align=center;verticalAlign=middle;whiteSpace=wrap;rounded=0;fontSize=12;" parent="WIyWlLk6GJQsqaUBKTNV-1" vertex="1"><mxGeometry x="270" y="360" width="60" height="30" as="geometry"/></mxCell><mxCell id="_gz8mSSlESVxTtfRlgLz-15" value="" style="ellipse;whiteSpace=wrap;html=1;fontSize=12;" parent="WIyWlLk6GJQsqaUBKTNV-1" vertex="1"><mxGeometry x="235" y="440" width="120" height="50" as="geometry"/></mxCell><mxCell id="_gz8mSSlESVxTtfRlgLz-16" value="Login" style="text;html=1;strokeColor=none;fillColor=none;align=center;verticalAlign=middle;whiteSpace=wrap;rounded=0;fontSize=12;" parent="WIyWlLk6GJQsqaUBKTNV-1" vertex="1"><mxGeometry x="265" y="450" width="60" height="30" as="geometry"/></mxCell><mxCell id="_gz8mSSlESVxTtfRlgLz-17" value="&lt;pre style=&quot;background-color:#2b2b2b;color:#a9b7c6;font-family:'JetBrains Mono',monospace;font-size:9.8pt;&quot;&gt;Add shows&lt;/pre&gt;" style="ellipse;whiteSpace=wrap;html=1;fontSize=12;" parent="WIyWlLk6GJQsqaUBKTNV-1" vertex="1"><mxGeometry x="445" y="110" width="115" height="60" as="geometry"/></mxCell><mxCell id="_gz8mSSlESVxTtfRlgLz-18" value="Update shows" style="ellipse;whiteSpace=wrap;html=1;fontSize=12;" parent="WIyWlLk6GJQsqaUBKTNV-1" vertex="1"><mxGeometry x="452.5" y="210" width="100" height="50" as="geometry"/></mxCell><mxCell id="_gz8mSSlESVxTtfRlgLz-19" value="" style="endArrow=none;html=1;rounded=0;fontSize=12;entryX=0.076;entryY=0.2;entryDx=0;entryDy=0;entryPerimeter=0;" parent="WIyWlLk6GJQsqaUBKTNV-1" target="_gz8mSSlESVxTtfRlgLz-0" edge="1"><mxGeometry width="50" height="50" relative="1" as="geometry"><mxPoint x="90" y="300" as="sourcePoint"/><mxPoint x="140" y="250" as="targetPoint"/></mxGeometry></mxCell><mxCell id="_gz8mSSlESVxTtfRlgLz-21" value="" style="endArrow=none;html=1;rounded=0;fontSize=12;" parent="WIyWlLk6GJQsqaUBKTNV-1" target="_gz8mSSlESVxTtfRlgLz-9" edge="1"><mxGeometry width="50" height="50" relative="1" as="geometry"><mxPoint x="90" y="300" as="sourcePoint"/><mxPoint x="140" y="250" as="targetPoint"/></mxGeometry></mxCell><mxCell id="_gz8mSSlESVxTtfRlgLz-24" value="" style="endArrow=none;html=1;rounded=0;fontSize=12;entryX=0;entryY=0.5;entryDx=0;entryDy=0;" parent="WIyWlLk6GJQsqaUBKTNV-1" target="_gz8mSSlESVxTtfRlgLz-13" edge="1"><mxGeometry width="50" height="50" relative="1" as="geometry"><mxPoint x="90" y="300" as="sourcePoint"/><mxPoint x="140" y="250" as="targetPoint"/></mxGeometry></mxCell><mxCell id="_gz8mSSlESVxTtfRlgLz-25" value="" style="endArrow=none;html=1;rounded=0;fontSize=12;entryX=0;entryY=0.5;entryDx=0;entryDy=0;" parent="WIyWlLk6GJQsqaUBKTNV-1" target="_gz8mSSlESVxTtfRlgLz-15" edge="1"><mxGeometry width="50" height="50" relative="1" as="geometry"><mxPoint x="90" y="300" as="sourcePoint"/><mxPoint x="140" y="250" as="targetPoint"/></mxGeometry></mxCell><mxCell id="_gz8mSSlESVxTtfRlgLz-26" value="" style="endArrow=none;html=1;rounded=0;fontSize=12;exitX=1;exitY=0;exitDx=0;exitDy=0;" parent="WIyWlLk6GJQsqaUBKTNV-1" source="_gz8mSSlESVxTtfRlgLz-17" edge="1"><mxGeometry width="50" height="50" relative="1" as="geometry"><mxPoint x="700" y="290" as="sourcePoint"/><mxPoint x="750" y="240" as="targetPoint"/></mxGeometry></mxCell><mxCell id="_gz8mSSlESVxTtfRlgLz-27" value="" style="endArrow=none;html=1;rounded=0;fontSize=12;exitX=1;exitY=0;exitDx=0;exitDy=0;" parent="WIyWlLk6GJQsqaUBKTNV-1" source="_gz8mSSlESVxTtfRlgLz-18" edge="1"><mxGeometry width="50" height="50" relative="1" as="geometry"><mxPoint x="700" y="290" as="sourcePoint"/><mxPoint x="750" y="240" as="targetPoint"/></mxGeometry></mxCell><mxCell id="_gz8mSSlESVxTtfRlgLz-28" value="" style="ellipse;whiteSpace=wrap;html=1;fontSize=12;" parent="WIyWlLk6GJQsqaUBKTNV-1" vertex="1"><mxGeometry x="390" y="295" width="107" height="45" as="geometry"/></mxCell><mxCell id="_gz8mSSlESVxTtfRlgLz-29" value="Select show" style="text;html=1;strokeColor=none;fillColor=none;align=center;verticalAlign=middle;whiteSpace=wrap;rounded=0;fontSize=12;" parent="WIyWlLk6GJQsqaUBKTNV-1" vertex="1"><mxGeometry x="414" y="300" width="60" height="30" as="geometry"/></mxCell><mxCell id="_gz8mSSlESVxTtfRlgLz-31" value="" style="endArrow=none;dashed=1;html=1;rounded=0;fontSize=12;" parent="WIyWlLk6GJQsqaUBKTNV-1" source="_gz8mSSlESVxTtfRlgLz-9" target="_gz8mSSlESVxTtfRlgLz-28" edge="1"><mxGeometry width="50" height="50" relative="1" as="geometry"><mxPoint x="360" y="310" as="sourcePoint"/><mxPoint x="410" y="260" as="targetPoint"/></mxGeometry></mxCell><mxCell id="_gz8mSSlESVxTtfRlgLz-32" value="&amp;lt;&amp;lt;include&amp;gt;&amp;gt;" style="text;html=1;strokeColor=none;fillColor=none;align=center;verticalAlign=middle;whiteSpace=wrap;rounded=0;fontSize=12;rotation=0;" parent="WIyWlLk6GJQsqaUBKTNV-1" vertex="1"><mxGeometry x="350" y="270" width="60" height="30" as="geometry"/></mxCell></root></mxGraphModel></diagram></mxfile>